<svg id="Layer_1" data-name="Layer 1" xmlns="http://www.w3.org/2000/svg" viewBox="0 0 290.6 280.49"><defs><style>.cls-1{fill:#fff;}.cls-2{fill:#88aa5b;}.cls-3{fill:#a9cb79;}</style></defs><title>Artboard 1</title><rect class="cls-1" x="39.52" y="45.58" width="210.88" height="186.28" rx="12" ry="12"/><path class="cls-2" d="M276,130.51c-7.12,0-12.47-1.9-16.35-5.81-7.53-7.6-7.5-20.5-7.5-20.58v-.58c0-.28-1.12-28.06-1.12-47.95,0-29.12-28.51-36.82-43.59-36.82H83.18c-15.08,0-43.59,7.7-43.59,36.82,0,19.88-1.11,47.67-1.12,48v.58c0,.13-.08,13-7.43,20.5-3.89,4-9.26,5.89-16.42,5.89a9.73,9.73,0,0,0,0,19.46c7.12,0,12.47,1.9,16.35,5.81,7.52,7.6,7.5,20.5,7.5,20.58v.58c0,.14.29,7.41.58,17.12,8.28-7.31,18.86-10.41,29.55-12.72,24.53-51,80.09-52.87,114.46-19.53,19.3,2.68,23.67,5,37.39,19.68,6.11,2.11,12.31,3.9,18.23,6.38a58.5,58.5,0,0,1,12.84,7.34c.29-10.29.61-18.12.61-18.27v-.58c0-.13.08-13,7.43-20.5,3.88-4,9.26-5.89,16.42-5.89a9.73,9.73,0,1,0,0-19.46ZM189.68,80.36c-3.24,15.76-13.37,26-27.45,33A49.77,49.77,0,0,1,140,118.81a45.51,45.51,0,0,1-14.49-2.38c-2.43-.81-7.29-4-9.32-4-2.53,0-5.57,10.33-10,10.33-3.19,0-4.15-1.57-5.52-3.9a3.89,3.89,0,0,1-.81-2.23c0-5.27,10-9.37,10-12.31,0-.45-1.32-3.14-1.52-4.15A30.73,30.73,0,0,1,108,94.9c0-16.11,12.82-27.61,27.21-32.37,10.38-3.44,32.47.56,39.51-6.13,2.78-2.58,4.15-5,8.41-5,5.72,0,7.6,14.84,7.6,19.15A49.12,49.12,0,0,1,189.68,80.36Z"/><path class="cls-3" d="M141.53,211c-12.59.12-18.59,5.71-29.47,12.82A85.55,85.55,0,0,0,103,208.65a49.92,49.92,0,0,0-10.2-9.51C81,190.85,60.94,193.19,48.71,203a31.51,31.51,0,0,0-9.19,12c0,3.4.07,6.73.07,9.88,0,29.12,28.51,36.81,43.59,36.81H207.42C222.5,261.71,251,254,251,224.9c0-3.67,0-7.61.1-11.59-4.21-6.41-11-11.48-20.35-14.79-6-2.15-12.34-3.49-17.84-5-13.52-16.36-14.35-16.81-36.65-19.71-34-31.32-73-28.28-90.19,5.43,16.9,5.22,23,14.3,31.6,24.44,27.52-12.46,48.9-6.08,57.93,20.12-2,1.69-6.41,3.77-9.08,6.06C160.48,223.78,155.5,210.83,141.53,211Z"/><path class="cls-2" d="M161.52,77.37c-17.93,0-29.48,7.5-41.18,20.42a3.21,3.21,0,0,0-1,2.28,3.27,3.27,0,0,0,3.24,3.24,3.2,3.2,0,0,0,2.28-1c2.49-2.23,4.71-4.66,7.15-6.94,9.17-8.26,17-11.55,29.48-11.55a3.25,3.25,0,0,0,0-6.49Z"/></svg>